# xmcd
# 
# Track frame offsets:
#     150
#     22197
#     48490
#     71229
#     103014
#     134404
#     156798
#     179313
#     207074
#     227833
#     252492
#     287581
#     306902
#     329591
# 
# Disc length: 4735
# 
# Revision: 4
# Processed by: cddbd v1.5.2PL0 Copyright (c) Steve Scherf et al.
# Submitted via: fre:ac v1.0.27
# 
DISCID=d5127d0e
DTITLE=Popa Chubby - Big Bad And Beautiful Live
DYEAR=2015
DGENRE=Blues Rock
TTITLE0=Working Class Blues
TTITLE1=Stoop Down Baby
TTITLE2=One Leg At A Time
TTITLE3=69 Dollars
TTITLE4=Same Old Blues
TTITLE5=Angel On My Shoulder
TTITLE6=I Don't Want Nobody
TTITLE7=Life Is A Beatdown
TTITLE8=Pallace Of The King
TTITLE9=Sweat
TTITLE10=Signed With Heartache
TTITLE11=Rock Me Baby
TTITLE12=Blues Bearin' Down
TTITLE13=Chubbfatha Medley
EXTD=
EXTT0=
EXTT1=
EXTT2=
EXTT3=
EXTT4=
EXTT5=
EXTT6=
EXTT7=
EXTT8=
EXTT9=
EXTT10=
EXTT11=
EXTT12=
EXTT13=
PLAYORDER=
